<svg width="217" height="49" viewBox="0 0 217 49" fill="none" xmlns="http://www.w3.org/2000/svg">
<g clip-path="url(#clip0_1_5)">
<path d="M58.432 41V17.64H62.208L64.64 25.192C64.8747 25.8747 65.088 26.5573 65.28 27.24C65.472 27.9013 65.6107 28.4133 65.696 28.776C65.8027 28.4133 65.9413 27.9013 66.112 27.24C66.2827 26.5573 66.4747 25.864 66.688 25.16L68.992 17.64H72.768V41H69.952V32.52C69.952 31.5813 69.984 30.5147 70.048 29.32C70.112 28.1253 70.1973 26.9093 70.304 25.672C70.4107 24.4133 70.5173 23.2187 70.624 22.088C70.752 20.936 70.8587 19.9333 70.944 19.08L67.168 30.76H64.128L60.32 19.08C60.4267 19.912 60.5333 20.8827 60.64 21.992C60.7467 23.08 60.8427 24.2427 60.928 25.48C61.0133 26.696 61.088 27.912 61.152 29.128C61.216 30.344 61.248 31.4747 61.248 32.52V41H58.432ZM78.3875 41V17.64H91.8275V20.264H81.2355V27.496H90.7075V30.088H81.2355V38.376H91.8275V41H78.3875ZM97.319 41V17.64H103.367C104.882 17.64 106.183 17.928 107.271 18.504C108.38 19.08 109.234 19.8907 109.831 20.936C110.45 21.9813 110.759 23.2187 110.759 24.648V33.96C110.759 35.3893 110.45 36.6373 109.831 37.704C109.234 38.7493 108.38 39.56 107.271 40.136C106.183 40.712 104.882 41 103.367 41H97.319ZM100.199 38.44H103.367C104.775 38.44 105.874 38.0453 106.663 37.256C107.474 36.4667 107.879 35.368 107.879 33.96V24.648C107.879 23.2613 107.474 22.1733 106.663 21.384C105.874 20.5947 104.775 20.2 103.367 20.2H100.199V38.44ZM116.923 41V38.376H121.691V20.264H116.923V17.64H129.403V20.264H124.635V38.376H129.403V41H116.923ZM142.478 41.32C141.07 41.32 139.843 41.0533 138.798 40.52C137.774 39.9867 136.974 39.2187 136.398 38.216C135.843 37.192 135.566 35.9867 135.566 34.6V24.04C135.566 22.632 135.843 21.4267 136.398 20.424C136.974 19.4213 137.774 18.6533 138.798 18.12C139.843 17.5867 141.07 17.32 142.478 17.32C143.886 17.32 145.102 17.5973 146.126 18.152C147.15 18.6853 147.939 19.4533 148.494 20.456C149.049 21.4587 149.326 22.6533 149.326 24.04H146.446C146.446 22.7173 146.094 21.704 145.39 21C144.707 20.2747 143.737 19.912 142.478 19.912C141.219 19.912 140.227 20.264 139.502 20.968C138.798 21.672 138.446 22.6853 138.446 24.008V34.6C138.446 35.9227 138.798 36.9467 139.502 37.672C140.227 38.376 141.219 38.728 142.478 38.728C143.737 38.728 144.707 38.376 145.39 37.672C146.094 36.9467 146.446 35.9227 146.446 34.6H149.326C149.326 35.9653 149.049 37.16 148.494 38.184C147.939 39.1867 147.15 39.9653 146.126 40.52C145.102 41.0533 143.886 41.32 142.478 41.32ZM161.538 41.32C160.13 41.32 158.914 41.0533 157.89 40.52C156.887 39.9867 156.108 39.2187 155.554 38.216C155.02 37.192 154.754 35.9867 154.754 34.6V24.04C154.754 22.632 155.02 21.4267 155.554 20.424C156.108 19.4213 156.887 18.6533 157.89 18.12C158.914 17.5867 160.13 17.32 161.538 17.32C162.946 17.32 164.151 17.5867 165.154 18.12C166.178 18.6533 166.956 19.4213 167.49 20.424C168.044 21.4267 168.322 22.6213 168.322 24.008V34.6C168.322 35.9867 168.044 37.192 167.49 38.216C166.956 39.2187 166.178 39.9867 165.154 40.52C164.151 41.0533 162.946 41.32 161.538 41.32ZM161.538 38.728C162.796 38.728 163.756 38.376 164.418 37.672C165.1 36.9467 165.442 35.9227 165.442 34.6V24.04C165.442 22.7173 165.1 21.704 164.418 21C163.756 20.2747 162.796 19.912 161.538 19.912C160.3 19.912 159.34 20.2747 158.658 21C157.975 21.704 157.634 22.7173 157.634 24.04V34.6C157.634 35.9227 157.975 36.9467 158.658 37.672C159.34 38.376 160.3 38.728 161.538 38.728ZM174.069 41V17.64H181.301C182.688 17.64 183.904 17.928 184.949 18.504C185.994 19.0587 186.805 19.8373 187.381 20.84C187.957 21.8427 188.245 23.016 188.245 24.36C188.245 25.9387 187.829 27.2933 186.997 28.424C186.186 29.5547 185.077 30.3333 183.669 30.76L188.565 41H185.173L180.693 31.08H176.949V41H174.069ZM176.949 28.488H181.301C182.496 28.488 183.456 28.1147 184.181 27.368C184.906 26.6 185.269 25.5973 185.269 24.36C185.269 23.1013 184.906 22.0987 184.181 21.352C183.456 20.6053 182.496 20.232 181.301 20.232H176.949V28.488ZM193.513 41V17.64H206.953V20.264H196.361V27.496H205.833V30.088H196.361V38.376H206.953V41H193.513Z" fill="#5F6FFF"/>
<path d="M24.1108 3C37.4274 3 48.2219 13.2971 48.2219 26V42.1C48.2219 43.93 47.4599 45.685 46.1034 46.979C44.7469 48.273 42.907 49 40.9886 49V65L25.3164 38.9099C25.3164 36.6076 25.4634 34.2225 26.7293 32.2629C27.6355 30.8586 28.8479 29.6566 30.284 28.7385C31.7201 27.8204 33.3463 27.2077 35.0524 26.9418L35.5142 26.8705C35.7046 26.8085 35.8698 26.6912 35.9868 26.5351C36.1038 26.379 36.1667 26.1919 36.1667 26C36.1667 25.8081 36.1038 25.621 35.9868 25.4649C35.8698 25.3088 35.7046 25.1915 35.5142 25.1294L35.0524 25.0581C32.5595 24.6697 30.2576 23.5441 28.4715 21.8403C26.6853 20.1365 25.5055 17.9406 25.0982 15.5626L25.0235 15.1222C24.9584 14.9406 24.8354 14.7829 24.6718 14.6713C24.5081 14.5597 24.312 14.4997 24.1108 14.4997C23.9096 14.4997 23.7136 14.5597 23.55 14.6713C23.3863 14.7829 23.2634 14.9406 23.1983 15.1222L23.1235 15.5626C22.845 17.1902 22.2027 18.7415 21.2402 20.1114C20.2778 21.4814 19.0176 22.6378 17.5453 23.5022C15.4911 24.7097 12.9908 24.85 10.5772 24.85H0.0286713C0.659177 12.6818 11.1993 3 24.1108 3Z" fill="#5F6FFF"/>
<path d="M0 27.15H10.5775C12.9911 27.15 15.4914 27.2903 17.5457 28.4978C19.1515 29.4417 20.5031 30.7311 21.4926 32.2629C22.7585 34.2225 22.9056 36.6076 22.9056 38.9099V49H7.23333C5.31494 49 3.4751 48.273 2.11859 46.979C0.762081 45.685 0 43.93 0 42.1V27.15ZM48.2222 5.3C48.2222 5.91 47.9682 6.49501 47.516 6.92635C47.0638 7.35768 46.4506 7.6 45.8111 7.6C45.1716 7.6 44.5584 7.35768 44.1062 6.92635C43.654 6.49501 43.4 5.91 43.4 5.3C43.4 4.69 43.654 4.10499 44.1062 3.67365C44.5584 3.24232 45.1716 3 45.8111 3C46.4506 3 47.0638 3.24232 47.516 3.67365C47.9682 4.10499 48.2222 4.69 48.2222 5.3Z" fill="#5F6FFF"/>
</g>
<defs>
<clipPath id="clip0_1_5">
<rect width="217" height="49" fill="white"/>
</clipPath>
</defs>
</svg>
